HIERARCHY
ROOT Hips
{
	OFFSET 0.00000 0.00000 0.00000
	CHANNELS 6 Xposition Yposition Zposition Zrotation Yrotation Xrotation 
	JOINT LHipJoint
	{
		OFFSET 0 0 0
		CHANNELS 3 Zrotation Yrotation Xrotation
		JOINT LeftUpLeg
		{
			OFFSET 1.28366 -1.58472 0.87544
			CHANNELS 3 Zrotation Yrotation Xrotation
			JOINT LeftLeg
			{
				OFFSET 2.18587 -6.00562 0.00000
				CHANNELS 3 Zrotation Yrotation Xrotation
				JOINT LeftFoot
				{
					OFFSET 2.39085 -6.56880 0.00000
					CHANNELS 3 Zrotation Yrotation Xrotation
					JOINT LeftToeBase
					{
						OFFSET 0.12003 -0.32979 2.03101
						CHANNELS 3 Zrotation Yrotation Xrotation
						End Site
						{
							OFFSET 0.00000 -0.00000 1.04074
						}
					}
				}
			}
		}
	}
	JOINT RHipJoint
	{
		OFFSET 0 0 0
		CHANNELS 3 Zrotation Yrotation Xrotation
		JOINT RightUpLeg
		{
			OFFSET -1.21795 -1.58472 0.87544
			CHANNELS 3 Zrotation Yrotation Xrotation
			JOINT RightLeg
			{
				OFFSET -2.22714 -6.11902 0.00000
				CHANNELS 3 Zrotation Yrotation Xrotation
				JOINT RightFoot
				{
					OFFSET -2.40306 -6.60235 0.00000
					CHANNELS 3 Zrotation Yrotation Xrotation
					JOINT RightToeBase
					{
						OFFSET -0.15519 -0.42640 1.91430
						CHANNELS 3 Zrotation Yrotation Xrotation
						End Site
						{
							OFFSET -0.00000 -0.00000 0.99082
						}
					}
				}
			}
		}
	}
	JOINT LowerBack
	{
		OFFSET 0 0 0
		CHANNELS 3 Zrotation Yrotation Xrotation
		JOINT Spine
		{
			OFFSET 0.01180 1.76430 -0.06387
			CHANNELS 3 Zrotation Yrotation Xrotation
			JOINT Spine1
			{
				OFFSET -0.00388 1.74651 0.09536
				CHANNELS 3 Zrotation Yrotation Xrotation
				JOINT Neck
				{
					OFFSET 0 0 0
					CHANNELS 3 Zrotation Yrotation Xrotation
					JOINT Neck1
					{
						OFFSET 0.04111 1.46174 0.14397
						CHANNELS 3 Zrotation Yrotation Xrotation
						JOINT Head
						{
							OFFSET 0.00502 1.44580 -0.31711
							CHANNELS 3 Zrotation Yrotation Xrotation
							End Site
							{
								OFFSET -0.00395 1.49251 -0.12327
							}
						}
					}
				}
				JOINT LeftShoulder
				{
					OFFSET 0 0 0
					CHANNELS 3 Zrotation Yrotation Xrotation
					JOINT LeftArm
					{
						OFFSET 2.70917 1.34870 -0.15417
						CHANNELS 3 Zrotation Yrotation Xrotation
						JOINT LeftForeArm
						{
							OFFSET 4.46610 -0.00000 -0.00000
							CHANNELS 3 Zrotation Yrotation Xrotation
							JOINT LeftHand
							{
								OFFSET 3.41414 -0.00000 0.00000
								CHANNELS 3 Zrotation Yrotation Xrotation
								JOINT LeftFingerBase
								{
									OFFSET 0 0 0
									CHANNELS 3 Zrotation Yrotation Xrotation
									JOINT LeftHandIndex1
									{
										OFFSET 0.32830 -0.00000 0.00000
										CHANNELS 3 Zrotation Yrotation Xrotation
										End Site
										{
											OFFSET 0.26468 -0.00000 0.00000
										}
									}
								}
								JOINT LThumb
								{
									OFFSET 0 0 0
									CHANNELS 3 Zrotation Yrotation Xrotation
									End Site
									{
										OFFSET 0.26872 -0.00000 0.26872
									}
								}
							}
						}
					}
				}
				JOINT RightShoulder
				{
					OFFSET 0 0 0
					CHANNELS 3 Zrotation Yrotation Xrotation
					JOINT RightArm
					{
						OFFSET -3.06316 1.13725 -0.10883
						CHANNELS 3 Zrotation Yrotation Xrotation
						JOINT RightForeArm
						{
							OFFSET -4.40431 -0.00000 0.00000
							CHANNELS 3 Zrotation Yrotation Xrotation
							JOINT RightHand
							{
								OFFSET -3.04688 -0.00000 0.00000
								CHANNELS 3 Zrotation Yrotation Xrotation
								JOINT RightFingerBase
								{
									OFFSET 0 0 0
									CHANNELS 3 Zrotation Yrotation Xrotation
									JOINT RightHandIndex1
									{
										OFFSET -0.50049 -0.00000 0.00000
										CHANNELS 3 Zrotation Yrotation Xrotation
										End Site
										{
											OFFSET -0.40351 -0.00000 0.00000
										}
									}
								}
								JOINT RThumb
								{
									OFFSET 0 0 0
									CHANNELS 3 Zrotation Yrotation Xrotation
									End Site
									{
										OFFSET -0.40967 -0.00000 0.40967
									}
								}
							}
						}
					}
				}
			}
		}
	}
}
MOTION
Frames: 8
Frame Time: .0083333
0.3122 13.1156 11.8102 0 0 0 0 0 0 -21 0 0 0 0 0 0 0 0 0 0 0 0 0 0 21 0 0 0 0 0 0 0 0 0 0 0 0 0 0 0 0 0 0 0 0 0 0 -16 0 0 21 0 0 11 0 0 0 -8 0 0 0 0 0 0 0 0 0 0 0 0 0 0 0 0 0 0 0 0 8 0 0 0 0 0 0 0 0 0 0 0 0 0 0 0 0 0
0.3122 13.1156 11.8102 -177.6010 0.6973 -175.2430 0.0000 0.0000 0.0000 -13.2686 33.3536 -52.8133 16.0077 19.6135 78.2548 2.9527 -11.3032 -31.0084 0.0108 0.6717 1.8459 0.0000 0.0000 0.0000 20.6094 -30.7578 -51.8529 -16.5307 -19.7089 79.8090 -3.4586 8.6503 -33.7439 -0.8434 -5.8578 16.3724 -0.5249 2.0971 4.2995 0.5282 3.0903 -5.9956 0.4671 1.6787 -8.7819 0.8283 1.0058 -19.9618 2.2072 -0.2980 26.1225 0.5719 -0.0667 11.8979 0.0000 -0.0000 0.0000 -5.2382 -15.9443 69.2591 129.3593 -53.2507 -93.3133 -0.0000 0.0000 -15.1172 52.3829 -11.3921 -14.3770 -7.1250 0.0000 -0.0000 16.7656 12.2658 -13.4226 0.0000 -0.0000 0.0000 13.1053 8.8769 64.9433 -122.2103 55.6916 -87.4914 0.0000 -0.0000 -1.8125 -55.0529 33.1341 -38.0311 7.1250 -0.0000 -0.0000 -11.9555 17.8581 -15.3176
0.3097 13.1149 11.8122 -177.6180 0.7117 -175.2560 0.0000 0.0000 0.0000 -13.2980 33.3578 -52.7975 16.0047 19.6129 78.2458 2.9701 -11.2295 -31.1009 0.0073 0.5527 1.5188 0.0000 0.0000 0.0000 20.6012 -30.8118 -51.8818 -16.5341 -19.7095 79.8189 -3.4648 8.6434 -33.7762 -0.8452 -5.8639 16.3900 -0.4944 2.0980 4.2904 0.5267 3.0935 -5.9892 0.4487 1.6781 -8.7678 0.8013 1.0234 -20.0100 2.2350 -0.2831 26.2202 0.5894 -0.0612 11.9455 0.0000 0.0000 0.0000 -5.2908 -15.9508 69.2791 129.3788 -53.2430 -93.3290 -0.0000 0.0000 -15.1382 52.3451 -11.3969 -14.3640 -7.1250 0.0000 -0.0000 16.7413 12.2712 -13.3993 0.0000 0.0000 0.0000 13.1616 8.8834 64.8994 -122.1583 55.7068 -87.4485 0.0000 -0.0000 -1.9441 -55.0000 33.1714 -38.0042 7.1250 -0.0000 -0.0000 -11.9154 17.8669 -15.2656
0.3076 13.1106 11.8151 -177.6620 0.7165 -175.2680 0.0000 0.0000 0.0000 -13.3638 33.3593 -52.7504 16.0025 19.6125 78.2392 2.9873 -11.2127 -31.1937 0.0061 0.5051 1.3881 0.0000 0.0000 0.0000 20.5506 -30.8499 -51.9325 -16.5482 -19.7119 79.8609 -3.4675 8.6953 -33.7865 -0.8672 -5.9378 16.6040 -0.5012 2.0964 4.2810 0.5105 3.0896 -5.9902 0.4363 1.6761 -8.7626 0.8518 1.0403 -20.0372 2.2160 -0.2827 26.3148 0.5738 -0.0611 11.9880 0.0000 0.0000 0.0000 -5.3292 -15.9433 69.3025 129.3844 -53.2408 -93.3334 -0.0000 0.0000 -15.1107 52.2882 -11.3720 -14.3062 -7.1250 0.0000 -0.0000 16.7131 12.3269 -13.3543 0.0000 0.0000 0.0000 13.2458 8.8729 64.8929 -122.1252 55.7165 -87.4212 0.0000 -0.0000 -2.0288 -55.0374 33.1326 -38.0140 7.1250 -0.0000 -0.0000 -11.9482 17.8468 -15.3064
0.3055 13.1099 11.8175 -177.6940 0.7163 -175.2920 0.0000 0.0000 0.0000 -13.3975 33.3540 -52.7122 15.9967 19.6113 78.2219 2.9998 -11.1782 -31.2601 0.0039 0.4033 1.1082 0.0000 0.0000 0.0000 20.5134 -30.8951 -51.9490 -16.5523 -19.7126 79.8729 -3.4713 8.6627 -33.8080 -0.8569 -5.9033 16.5042 -0.4850 2.0989 4.2816 0.4985 3.0926 -5.9834 0.4145 1.6757 -8.7540 0.8120 1.0309 -20.0818 2.2701 -0.3103 26.4041 0.5965 -0.0725 12.0323 0.0000 -0.0000 0.0000 -5.3502 -15.9580 69.3100 129.4388 -53.2193 -93.3770 -0.0000 0.0000 -15.1530 52.2930 -11.3698 -14.3059 -7.1250 0.0000 -0.0000 16.7166 12.3285 -13.3567 0.0000 -0.0000 0.0000 13.3217 8.8256 64.8588 -122.1331 55.7142 -87.4277 0.0000 -0.0000 -2.1507 -54.9457 33.1359 -37.9219 7.1250 -0.0000 -0.0000 -11.9005 17.7931 -15.2361
0.3032 13.1102 11.8200 -177.7400 0.7093 -175.3130 0.0000 0.0000 0.0000 -13.4394 33.3339 -52.6627 15.9856 19.6091 78.1887 3.0081 -11.1472 -31.3045 0.0027 0.3365 0.9246 0.0000 0.0000 0.0000 20.4459 -30.9427 -51.9670 -16.5565 -19.7133 79.8856 -3.4732 8.6927 -33.8158 -0.8509 -5.8832 16.4459 -0.5067 2.0973 4.2713 0.5008 3.0880 -5.9749 0.4303 1.6747 -8.7399 0.7961 1.0329 -20.0814 2.2909 -0.3131 26.4364 0.6065 -0.0739 12.0449 0.0000 -0.0000 0.0000 -5.3846 -15.9483 69.2760 129.4932 -53.1979 -93.4206 -0.0000 0.0000 -15.1775 52.2450 -11.3947 -14.3117 -7.1250 0.0000 -0.0000 16.6808 12.3075 -13.3331 0.0000 -0.0000 0.0000 13.3113 8.7672 64.8297 -122.2166 55.6898 -87.4966 0.0000 -0.0000 -2.1615 -54.9701 33.1167 -37.9327 7.1250 -0.0000 -0.0000 -11.9197 17.7868 -15.2608
0.3010 13.1099 11.8225 -177.7760 0.7100 -175.3360 0.0000 0.0000 0.0000 -13.4717 33.3239 -52.6117 15.9746 19.6070 78.1562 3.0171 -11.1212 -31.3524 0.0016 0.2564 0.7045 0.0000 0.0000 0.0000 20.3972 -30.9801 -51.9793 -16.5570 -19.7134 79.8869 -3.4767 8.6945 -33.8335 -0.8467 -5.8690 16.4049 -0.5030 2.0983 4.2703 0.4933 3.0884 -5.9696 0.4205 1.6741 -8.7328 0.7863 1.0346 -20.0980 2.3160 -0.3227 26.4923 0.6160 -0.0775 12.0703 -0.0000 -0.0000 0.0000 -5.4096 -15.9425 69.2629 129.5405 -53.1791 -93.4585 -0.0000 0.0000 -15.1894 52.2193 -11.3829 -14.2850 -7.1250 0.0000 -0.0000 16.6682 12.3335 -13.3126 -0.0000 -0.0000 0.0000 13.3460 8.7194 64.8044 -122.2606 55.6768 -87.5330 0.0000 -0.0000 -2.2102 -54.9463 33.1135 -37.9058 7.1250 -0.0000 -0.0000 -11.9089 17.7684 -15.2439
0.2988 13.1101 11.8251 -177.8100 0.7110 -175.3600 0.0000 0.0000 0.0000 -13.4956 33.3102 -52.5543 15.9618 19.6045 78.1179 3.0228 -11.0812 -31.3825 0.0005 0.1463 0.4021 0.0000 0.0000 0.0000 20.3488 -31.0087 -51.9836 -16.5545 -19.7130 79.8796 -3.4817 8.6924 -33.8594 -0.8403 -5.8472 16.3418 -0.4931 2.0994 4.2751 0.4830 3.0895 -5.9662 0.4039 1.6733 -8.7307 0.7790 1.0356 -20.1075 2.3431 -0.3334 26.5370 0.6257 -0.0810 12.0900 -0.0000 -0.0000 0.0000 -5.4256 -15.9304 69.2439 129.5934 -53.1582 -93.5008 -0.0000 0.0000 -15.1983 52.1978 -11.3638 -14.2517 -7.1250 0.0000 -0.0000 16.6600 12.3688 -13.2926 -0.0000 -0.0000 0.0000 13.3769 8.6630 64.7849 -122.3251 55.6579 -87.5862 0.0000 -0.0000 -2.2396 -54.9201 33.1093 -37.8757 7.1250 -0.0000 -0.0000 -11.8971 17.7473 -15.2255
